#!OML:ASF H:\Punching\Project 1\Capture day 1\Session 1\female.ASF
:FULLY-SPECIFIED
:DEGREES
1692
root 0.150196 15.6593 3.58544 -29.6953 -29.9012 20.02
lowerback 0.939152 -0.145444 7.54054
upperback 0.520525 -0.241298 -10.0644
thorax -0.0490682 -0.144155 -15.4178
lowerneck 8.29722 15.3073 16.6946
upperneck 41.0077 28.9175 -16.7666
head 21.1625 13.3062 -6.56296
rclavicle 2.59662e-015 7.04195e-014
rhumerus 0.568421 41.984 -86.487
rradius 121.14
rwrist -21.3637
rhand -29.4958 9.52454
rfingers 7.12502
rthumb -2.83056 -20.4364
lclavicle 2.59662e-015 7.04195e-014
lhumerus -23.3097 1.68931 66.3027
lradius 143.65
lwrist 2.17344
lhand -31.017 4.01862
lfingers 7.12502
lthumb -4.29958 33.955
rfemur 11.519 13.1825 14.666
rtibia 31.1017
rfoot -18.5151 -0.785499
rtoes 10.9779
lfemur -145.137 18.118 -87.344
ltibia 18.2194
lfoot 72.6364 4.56571
ltoes 56.82
1693
root 0.140188 15.6588 3.60897 -29.678 -30.1703 20.1333
lowerback 0.670823 -0.267666 7.65309
upperback 0.434071 -0.420188 -10.0307
thorax -0.0469234 -0.241614 -15.4478
lowerneck 8.40464 15.4215 16.7806
upperneck 41.0243 29.1516 -16.8815
head 21.3273 13.4115 -6.59533
rclavicle -3.85145e-015 7.03698e-014
rhumerus 0.938546 42.0752 -85.8193
rradius 120.973
rwrist -21.1547
rhand -29.3924 9.29963
rfingers 7.12502
rthumb -2.73069 -20.6626
lclavicle -3.85145e-015 7.03698e-014
lhumerus -23.4833 1.85688 66.4415
lradius 143.834
lwrist 1.93844
lhand -31.0405 4.63137
lfingers 7.12502
lthumb -4.32226 34.5673
rfemur 11.3115 13.0184 14.4906
rtibia 31.3352
rfoot -18.7069 -0.34655
rtoes 11.139
lfemur -147.814 11.8717 -93.6774
ltibia 20.0979
lfoot 77.5402 -3.29284
ltoes 56.4965
1694
root 0.130544 15.6571 3.63003 -29.7658 -30.3734 20.3011
lowerback 0.523441 -0.386553 7.66367
upperback 0.396215 -0.590374 -10.0214
thorax -0.0584885 -0.333343 -15.442
lowerneck 8.44083 15.5226 16.8668
upperneck 41.0221 29.3481 -16.9773
head 21.4747 13.4981 -6.61654
rclavicle 4.26393e-014 -1.33186e-014
rhumerus 1.37457 42.0898 -85.1623
rradius 120.765
rwrist -20.6417
rhand -29.3665 9.03162
rfingers 7.12502
rthumb -2.70567 -20.931
lclavicle 4.26393e-014 -1.33186e-014
lhumerus -23.5711 1.98037 66.556
lradius 143.945
lwrist 1.73408
lhand -31.0898 4.84051
lfingers 7.12502
lthumb -4.3699 34.7754
rfemur 11.174 12.8025 14.2478
rtibia 31.5885
rfoot -18.8888 0.101045
rtoes 11.447
lfemur -232.659 181.028 -103.94
ltibia 22.8998
lfoot -77.3945 4.37598
ltoes 55.3942
1695
root 0.121602 15.6537 3.64919 -29.9918 -30.5158 20.5437
lowerback 0.516655 -0.49457 7.55025
upperback 0.408159 -0.740509 -10.0378
thorax -0.0890437 -0.413753 -15.3865
lowerneck 8.42729 15.605 16.9469
upperneck 41.0008 29.4988 -17.0552
head 21.5909 13.5632 -6.63066
rclavicle -2.14687e-014 5.78463e-014
rhumerus 1.82251 42.0335 -84.5568
rradius 120.55
rwrist -19.9117
rhand -29.3818 8.66694
rfingers 7.12502
rthumb -2.72048 -21.2955
lclavicle -2.14687e-014 5.78463e-014
lhumerus -23.5988 2.0032 66.661
lradius 144.018
lwrist 1.57037
lhand -31.1508 4.89599
lfingers 7.12502
lthumb -4.42879 34.8297
rfemur 11.1307 12.5713 13.944
rtibia 31.8653
rfoot -19.0606 0.504938
rtoes 11.9197
lfemur -235.442 168.68 -115.897
ltibia 26.2323
lfoot -62.692 24.9435
ltoes 52.3944
1696
root 0.113828 15.6489 3.66645 -30.3577 -30.6118 20.8594
lowerback 0.652281 -0.589382 7.31612
upperback 0.472263 -0.867574 -10.0744
thorax -0.135499 -0.480871 -15.2764
lowerneck 8.3708 15.6678 17.004
upperneck 40.9498 29.6028 -17.1257
head 21.6619 13.6039 -6.64061
rclavicle 2.8128e-014 -1.68967e-014
rhumerus 2.26694 41.9213 -84.0123
rradius 120.354
rwrist -19.0926
rhand -29.4133 8.26104
rfingers 7.12502
rthumb -2.75087 -21.701
lclavicle 2.8128e-014 -1.68967e-014
lhumerus -23.5757 1.95132 66.7433
lradius 144.023
lwrist 1.49115
lhand -31.2654 4.71363
lfingers 7.12502
lthumb -4.53945 34.645
rfemur 11.1908 12.3662 13.6049
rtibia 32.1547
rfoot -19.2201 0.816877
rtoes 12.5483
lfemur -240.377 158.215 -127.688
ltibia 29.8801
lfoot -39.272 42.692
ltoes 45.7578
1697
root 0.107351 15.644 3.68086 -30.8474 -30.6689 21.2516
lowerback 0.916141 -0.666255 6.97307
upperback 0.574417 -0.967427 -10.1289
thorax -0.203414 -0.533708 -15.1164
lowerneck 8.2948 15.7091 17.0353
upperneck 40.8689 29.6633 -17.2007
head 21.6859 13.6224 -6.6547
rclavicle 6.95746e-015 -2.127e-014
rhumerus 2.67267 41.7713 -83.5546
rradius 120.202
rwrist -18.3066
rhand -29.4085 7.83925
rfingers 7.12502
rthumb -2.74626 -22.1228
lclavicle 6.95746e-015 -2.127e-014
lhumerus -23.5348 1.80268 66.816
lradius 143.991
lwrist 1.47709
lhand -31.3974 4.49141
lfingers 7.12502
lthumb -4.66692 34.42
rfemur 11.3441 12.2246 13.2397
rtibia 32.4331
rfoot -19.3618 1.01068
rtoes 13.2469
lfemur -246.195 150.823 -138.261
ltibia 33.7489
lfoot -8.89647 47.6337
ltoes 35.5724
1698
root 0.10281 15.6395 3.6921 -31.3877 -30.7178 21.6645
lowerback 1.27645 -0.721683 6.60359
upperback 0.690656 -1.03773 -10.1866
thorax -0.300711 -0.572463 -14.9426
lowerneck 8.21257 15.7297 17.0353
upperneck 40.7671 29.6848 -17.2795
head 21.6665 13.6205 -6.67314
rclavicle -2.76311e-014 -3.00165e-014
rhumerus 3.00864 41.6063 -83.1934
rradius 120.115
rwrist -17.6586
rhand -29.384 7.47749
rfingers 7.12502
rthumb -2.72257 -22.4849
lclavicle -2.76311e-014 -3.00165e-014
lhumerus -23.4897 1.59703 66.8695
lradius 143.907
lwrist 1.54254
lhand -31.5149 4.16258
lfingers 7.12502
lthumb -4.78032 34.0887
rfemur 11.5527 12.1835 12.9127
rtibia 32.6807
rfoot -19.4857 1.07254
rtoes 13.9157
lfemur -251.93 145.931 -147.297
ltibia 37.7998
lfoot 12.0524 42.3726
ltoes 25.3317
